<?xml version="1.0" standalone="no"?>
<!DOCTYPE svg PUBLIC "-//W3C//DTD SVG 20010904//EN"
 "http://www.w3.org/TR/2001/REC-SVG-20010904/DTD/svg10.dtd">
<svg version="1.0" xmlns="http://www.w3.org/2000/svg"
 width="231.000000pt" height="140.000000pt" viewBox="0 0 231.000000 140.000000"
 preserveAspectRatio="xMidYMid meet">

<g transform="translate(0.000000,140.000000) scale(0.100000,-0.100000)"
fill="#000000" stroke="none">
<path d="M992 1248 c-17 -17 -17 -579 0 -596 8 -8 60 -12 170 -12 155 0 158 0
146 20 -11 17 -9 23 15 48 15 15 27 30 27 33 0 8 -26 10 -182 15 l-148 5 0
230 0 229 145 0 145 0 0 -82 c0 -80 0 -81 20 -63 16 15 20 31 20 82 0 106 6
103 -183 103 -114 0 -167 -4 -175 -12z m206 -555 c3 -32 2 -33 -32 -33 -35 0
-36 1 -36 36 0 34 1 35 33 32 28 -3 32 -7 35 -35z m-90 0 c2 -9 -8 -13 -32
-13 -34 0 -52 11 -39 24 11 11 66 2 71 -11z m180 0 c2 -9 -8 -13 -32 -13 -34
0 -52 11 -39 24 11 11 66 2 71 -11z"/>
<path d="M1327 976 c-18 -14 -23 -36 -7 -36 10 0 34 39 28 45 -2 2 -11 -2 -21
-9z"/>
<path d="M1310 843 c0 -25 0 -26 20 -8 11 10 20 19 20 20 0 2 -9 5 -20 8 -16
4 -20 0 -20 -20z"/>
<path d="M330 245 c0 -11 11 -15 40 -15 l40 0 0 -110 c0 -90 3 -110 15 -110
11 0 15 21 17 108 l3 107 43 3 c28 2 42 7 39 15 -2 8 -37 13 -100 15 -82 2
-97 0 -97 -13z"/>
<path d="M927 253 c-4 -3 -7 -60 -7 -125 0 -98 3 -118 15 -118 10 0 15 10 15
34 0 18 6 39 14 45 11 9 19 3 40 -34 17 -29 34 -45 46 -45 18 0 16 6 -16 56
l-36 56 33 34 c22 22 28 34 18 34 -8 0 -30 -16 -49 -35 -19 -19 -38 -35 -42
-35 -4 0 -8 32 -8 70 0 64 -6 81 -23 63z"/>
<path d="M1219 239 c-14 -14 -19 -30 -17 -57 3 -36 5 -38 67 -58 36 -11 70
-28 75 -37 18 -28 -5 -52 -52 -55 -40 -3 -48 1 -77 43 -17 25 -29 14 -21 -19
13 -54 120 -73 167 -30 23 20 25 76 4 94 -8 6 -40 20 -72 29 -47 14 -59 22
-61 40 -7 48 73 59 106 14 23 -32 49 -24 30 10 -18 35 -40 46 -85 47 -30 0
-49 -6 -64 -21z"/>
<path d="M1430 215 c0 -14 -4 -25 -10 -25 -5 0 -10 -7 -10 -15 0 -8 4 -15 10
-15 5 0 10 -33 12 -72 3 -71 4 -73 31 -76 15 -2 27 1 27 7 0 6 -7 11 -15 11
-12 0 -15 14 -15 64 0 48 4 65 15 70 8 3 15 10 15 16 0 5 -7 10 -15 10 -9 0
-15 9 -15 25 0 16 -6 25 -15 25 -9 0 -15 -9 -15 -25z"/>
<path d="M575 165 c-32 -31 -35 -101 -6 -136 27 -34 95 -33 123 1 23 29 7 41
-21 16 -24 -22 -68 -20 -81 3 -19 36 -12 41 55 41 62 0 65 1 65 24 0 68 -86
101 -135 51z m87 -12 c33 -29 22 -43 -32 -43 -54 0 -61 9 -30 40 24 24 38 25
62 3z"/>
<path d="M761 164 c-27 -34 -28 -103 -3 -133 9 -11 31 -24 49 -27 26 -5 37 -1
57 19 14 15 26 31 26 37 0 17 -25 11 -38 -10 -16 -26 -58 -26 -72 -1 -5 11
-10 35 -10 54 0 57 56 89 82 47 12 -19 38 -28 38 -12 0 4 -7 18 -16 30 -23 33
-86 31 -113 -4z"/>
<path d="M1535 165 c-37 -36 -35 -97 4 -136 32 -31 46 -34 85 -19 32 12 49 44
49 92 0 79 -84 118 -138 63z m87 -12 c21 -19 25 -92 6 -111 -17 -17 -54 -15
-72 4 -23 22 -20 80 4 104 24 24 38 25 62 3z"/>
<path d="M1720 100 c0 -53 4 -90 10 -90 6 0 10 20 10 44 0 58 15 97 40 103 22
6 28 33 7 33 -7 0 -19 -6 -26 -12 -11 -10 -14 -10 -18 0 -13 35 -23 2 -23 -78z"/>
<path d="M1845 165 c-32 -31 -35 -101 -6 -136 27 -34 95 -33 123 1 23 29 7 41
-21 16 -24 -22 -68 -20 -81 3 -19 36 -12 41 55 41 62 0 65 1 65 24 0 68 -86
101 -135 51z m87 -12 c33 -29 22 -43 -32 -43 -54 0 -61 9 -30 40 24 24 38 25
62 3z"/>
</g>
</svg>
